<svg xmlns="http://www.w3.org/2000/svg" xmlns:xlink="http://www.w3.org/1999/xlink"><symbol id="fb" viewBox="-5 0 20 20">
    <path d="M6.821 20v-9h2.733L10 7H6.821V5.052C6.821 4.022 6.848 3 8.287 3h1.458V.14c0-.043-1.253-.14-2.52-.14C4.58 0 2.924 1.657 2.924 4.7V7H0v4h2.923v9h3.898Z" fill-rule="evenodd"/>
</symbol><symbol id="graph" viewBox="0 0 1800 1800">
    <g>
        <path d="M1548.188 307.531a895.091 895.091 0 0 0-43.855-43.868l-43.869 43.868L932.02 835.979V26.19c-10.297-.357-20.635-.6-31.018-.6-10.381 0-20.714.242-31.012.6C396.155 42.598 15.733 433.107 15.733 910.865c0 488.131 397.129 885.256 885.269 885.256 242.229 0 462.014-97.82 622.015-256 1.378-.988 2.715-2.063 3.95-3.302 1.234-1.234 2.316-2.567 3.301-3.945 158.176-160.005 256-379.796 256-622.009 0-232.941-90.484-445.113-238.08-603.334zM869.99 88.261v791.578H78.412C94.39 450.525 440.663 104.252 869.99 88.261zm31.012 1645.826c-443.551 0-806.223-352.599-822.59-792.214h809.74l572.312 572.308c-146.976 136.374-343.635 219.906-559.462 219.906zm603.33-263.766L944.871 910.865l559.451-559.47c136.383 146.966 219.916 343.634 219.916 559.47 0 215.823-83.533 412.481-219.906 559.456z"/>
        <path d="M1047.338 573.287a27.92 27.92 0 0 0 10.705 2.134 28.015 28.015 0 0 0 19.798-8.194l363.142-363.146a27.984 27.984 0 0 0-.004-39.579C1338.694 62.222 1202.705 5.887 1058.047 5.878a27.982 27.982 0 0 0-27.984 27.988v513.566a27.978 27.978 0 0 0 17.275 25.855zm38.697-510.649c109.898 6.214 212.929 48.893 295.021 122.212l-295.021 295.02V62.638z"/>
    </g>
</symbol><symbol id="insta" viewBox="0 0 20 20">
    <path d="M5.87.123C4.242.196 2.83.594 1.69 1.729.548 2.869.155 4.286.081 5.897.037 6.902-.231 14.498.545 16.49a5.04 5.04 0 0 0 2.91 2.903c.634.246 1.356.412 2.416.461 8.86.401 12.145.183 13.53-3.364.246-.631.415-1.353.462-2.41.405-8.883-.066-10.809-1.61-12.351C17.027.507 15.586-.325 5.87.123m.081 17.944c-.97-.043-1.496-.205-1.848-.341a3.255 3.255 0 0 1-1.888-1.883c-.591-1.514-.395-8.703-.342-9.866.051-1.14.282-2.18 1.086-2.985C3.954 2 5.24 1.513 13.993 1.908c1.142.052 2.186.282 2.992 1.084.995.993 1.489 2.288 1.087 11.008-.044.968-.206 1.493-.342 1.843-.901 2.308-2.973 2.628-11.779 2.224M14.09 4.69c0 .657.534 1.19 1.194 1.19.66 0 1.195-.533 1.195-1.19a1.194 1.194 0 0 0-2.39 0M4.864 9.988a5.103 5.103 0 0 0 5.11 5.097 5.103 5.103 0 0 0 5.109-5.097 5.102 5.102 0 0 0-5.11-5.096 5.102 5.102 0 0 0-5.11 5.096m1.794 0A3.313 3.313 0 0 1 9.972 6.68a3.313 3.313 0 0 1 3.317 3.308 3.313 3.313 0 0 1-3.317 3.31 3.313 3.313 0 0 1-3.316-3.31" fill-rule="evenodd"/>
</symbol><symbol id="linkedin" viewBox="0 0 20 20">
    <path d="M20 20h-4v-6.999c0-1.92-.847-2.991-2.366-2.991-1.653 0-2.634 1.116-2.634 2.991V20H7V7h4v1.462s1.255-2.202 4.083-2.202C17.912 6.26 20 7.986 20 11.558V20ZM2.442 4.921A2.451 2.451 0 0 1 0 2.46 2.451 2.451 0 0 1 2.442 0a2.451 2.451 0 0 1 2.441 2.46 2.45 2.45 0 0 1-2.441 2.461ZM0 20h5V7H0v13Z" fill-rule="evenodd"/>
</symbol><symbol id="play" viewBox="0 0 24 24">
    <path fill-rule="evenodd" clip-rule="evenodd" d="M3 5.497c0-2.32 2.521-3.762 4.521-2.586l11.055 6.503c1.972 1.16 1.972 4.012 0 5.172L7.521 21.089C5.521 22.265 3 20.823 3 18.503V5.497Z"/>
</symbol><symbol id="ssl" viewBox="0 0 1800 1800">
    <g>
        <path d="M900 868.536c-113.664 0-206.139 92.473-206.139 206.145 0 72.752 38.923 140.217 100.683 177.107v167.979h210.914v-167.979c61.764-36.891 100.689-104.355 100.689-177.107-.001-113.672-92.478-206.145-206.147-206.145zm60.627 335.865-18.129 8.493v143.914h-84.996v-143.914l-18.129-8.493c-50.148-23.487-82.554-74.403-82.554-129.721 0-78.952 64.232-143.185 143.181-143.185 78.952 0 143.189 64.232 143.189 143.185 0 55.318-32.407 106.234-82.562 129.721z"/>
        <path d="M1306.793 621.365V406.939c-1.094-107.793-43.891-208.955-120.511-284.855C1109.604 46.13 1007.934 4.301 899.996 4.301c-107.933 0-209.604 41.83-286.273 117.788-76.617 75.896-119.413 177.057-120.507 285.166v112.333h62.958V407.571c1.898-187.646 156.137-340.313 343.822-340.313 187.696 0 341.942 152.667 343.839 339.996v214.11H192.564v474.124c1.906 187.453 76.336 363.382 209.578 495.369C535.485 1722.948 712.296 1795.7 900.004 1795.7c187.708 0 364.519-72.752 497.863-204.843 133.242-131.987 207.668-307.916 209.568-495.693V621.365h-300.642zm237.684 473.483c-3.561 351.735-292.671 637.894-644.472 637.894-351.796 0-640.912-286.158-644.482-637.577v-410.84h1288.955v410.523z"/>
    </g>
</symbol><symbol id="twitter" viewBox="0 -2 20 20">
    <path d="M6.29 16c7.547 0 11.675-6.156 11.675-11.495 0-.175 0-.349-.012-.522A8.265 8.265 0 0 0 20 1.89a8.273 8.273 0 0 1-2.356.637A4.07 4.07 0 0 0 19.448.293a8.303 8.303 0 0 1-2.606.98 4.153 4.153 0 0 0-5.806-.175 4.006 4.006 0 0 0-1.187 3.86A11.717 11.717 0 0 1 1.392.738 4.005 4.005 0 0 0 2.663 6.13 4.122 4.122 0 0 1 .8 5.625v.051C.801 7.6 2.178 9.255 4.092 9.636a4.144 4.144 0 0 1-1.852.069c.537 1.646 2.078 2.773 3.833 2.806A8.315 8.315 0 0 1 0 14.185a11.754 11.754 0 0 0 6.29 1.812" fill-rule="evenodd"/>
</symbol></svg>