<svg xmlns="http://www.w3.org/2000/svg" xmlns:xlink="http://www.w3.org/1999/xlink"><symbol id="graph" viewBox="0 0 1800 1800">
    <g>
        <path d="M1548.188 307.531a895.091 895.091 0 0 0-43.855-43.868l-43.869 43.868L932.02 835.979V26.19c-10.297-.357-20.635-.6-31.018-.6-10.381 0-20.714.242-31.012.6C396.155 42.598 15.733 433.107 15.733 910.865c0 488.131 397.129 885.256 885.269 885.256 242.229 0 462.014-97.82 622.015-256 1.378-.988 2.715-2.063 3.95-3.302 1.234-1.234 2.316-2.567 3.301-3.945 158.176-160.005 256-379.796 256-622.009 0-232.941-90.484-445.113-238.08-603.334zM869.99 88.261v791.578H78.412C94.39 450.525 440.663 104.252 869.99 88.261zm31.012 1645.826c-443.551 0-806.223-352.599-822.59-792.214h809.74l572.312 572.308c-146.976 136.374-343.635 219.906-559.462 219.906zm603.33-263.766L944.871 910.865l559.451-559.47c136.383 146.966 219.916 343.634 219.916 559.47 0 215.823-83.533 412.481-219.906 559.456z"/>
        <path d="M1047.338 573.287a27.92 27.92 0 0 0 10.705 2.134 28.015 28.015 0 0 0 19.798-8.194l363.142-363.146a27.984 27.984 0 0 0-.004-39.579C1338.694 62.222 1202.705 5.887 1058.047 5.878a27.982 27.982 0 0 0-27.984 27.988v513.566a27.978 27.978 0 0 0 17.275 25.855zm38.697-510.649c109.898 6.214 212.929 48.893 295.021 122.212l-295.021 295.02V62.638z"/>
    </g>
</symbol><symbol id="play" viewBox="0 0 24 24">
    <path fill-rule="evenodd" clip-rule="evenodd" d="M3 5.497c0-2.32 2.521-3.762 4.521-2.586l11.055 6.503c1.972 1.16 1.972 4.012 0 5.172L7.521 21.089C5.521 22.265 3 20.823 3 18.503V5.497Z"/>
</symbol><symbol id="ssl" viewBox="0 0 1800 1800">
    <g>
        <path d="M900 868.536c-113.664 0-206.139 92.473-206.139 206.145 0 72.752 38.923 140.217 100.683 177.107v167.979h210.914v-167.979c61.764-36.891 100.689-104.355 100.689-177.107-.001-113.672-92.478-206.145-206.147-206.145zm60.627 335.865-18.129 8.493v143.914h-84.996v-143.914l-18.129-8.493c-50.148-23.487-82.554-74.403-82.554-129.721 0-78.952 64.232-143.185 143.181-143.185 78.952 0 143.189 64.232 143.189 143.185 0 55.318-32.407 106.234-82.562 129.721z"/>
        <path d="M1306.793 621.365V406.939c-1.094-107.793-43.891-208.955-120.511-284.855C1109.604 46.13 1007.934 4.301 899.996 4.301c-107.933 0-209.604 41.83-286.273 117.788-76.617 75.896-119.413 177.057-120.507 285.166v112.333h62.958V407.571c1.898-187.646 156.137-340.313 343.822-340.313 187.696 0 341.942 152.667 343.839 339.996v214.11H192.564v474.124c1.906 187.453 76.336 363.382 209.578 495.369C535.485 1722.948 712.296 1795.7 900.004 1795.7c187.708 0 364.519-72.752 497.863-204.843 133.242-131.987 207.668-307.916 209.568-495.693V621.365h-300.642zm237.684 473.483c-3.561 351.735-292.671 637.894-644.472 637.894-351.796 0-640.912-286.158-644.482-637.577v-410.84h1288.955v410.523z"/>
    </g>
</symbol></svg>