<svg width="120" height="120" viewBox="0 0 120 120" fill="none" xmlns="http://www.w3.org/2000/svg">
<g filter="url(#filter0_d_112_1560)">
<circle cx="60" cy="55" r="40" fill="white"/>
</g>
<path fill-rule="evenodd" clip-rule="evenodd" d="M35.1354 36.6667C35.1354 35.8566 35.7921 35.2 36.6021 35.2H82.665C83.475 35.2 84.1316 35.8566 84.1316 36.6667V67.8322C84.1316 68.6423 83.475 69.2989 82.665 69.2989H75.5949V67.8322H82.665V43.0512H36.6021V67.8322H49.3473V69.2989H36.6021C35.7921 69.2989 35.1354 68.6423 35.1354 67.8322V36.6667ZM36.6021 41.5846H82.665V36.6667L36.6021 36.6667V41.5846Z" fill="#413488"/>
<path d="M40.8348 39.4804C40.8348 39.8722 40.5172 40.1898 40.1254 40.1898C39.7336 40.1898 39.416 39.8722 39.416 39.4804C39.416 39.0886 39.7336 38.771 40.1254 38.771C40.5172 38.771 40.8348 39.0886 40.8348 39.4804Z" fill="#FFB800"/>
<path d="M43.6725 39.4804C43.6725 39.8722 43.3548 40.1898 42.9631 40.1898C42.5713 40.1898 42.2537 39.8722 42.2537 39.4804C42.2537 39.0886 42.5713 38.771 42.9631 38.771C43.3548 38.771 43.6725 39.0886 43.6725 39.4804Z" fill="#FFB800"/>
<path d="M46.5094 39.4804C46.5094 39.8722 46.1918 40.1898 45.8 40.1898C45.4082 40.1898 45.0906 39.8722 45.0906 39.4804C45.0906 39.0886 45.4082 38.771 45.8 38.771C46.1918 38.771 46.5094 39.0886 46.5094 39.4804Z" fill="#FFB800"/>
<path fill-rule="evenodd" clip-rule="evenodd" d="M47.5965 49.3121C48.0658 49.0727 48.6062 49.1744 48.8765 49.6425L52.6188 56.1244C52.8213 56.4752 53.2698 56.5953 53.6205 56.3928C53.9713 56.1903 54.0915 55.7418 53.889 55.3911L52.8015 53.5075C52.9101 52.9195 53.2461 52.6792 53.5132 52.6245C53.819 52.5619 54.313 52.6854 54.6982 53.3526L55.6986 55.0853C55.9011 55.4361 56.3496 55.5563 56.7003 55.3537C57.0511 55.1512 57.1712 54.7027 56.9687 54.352L56.0783 52.8098C56.1466 52.1979 56.4896 51.8793 56.7778 51.7956C57.0521 51.716 57.5708 51.7741 58.0465 52.5979L59.2372 54.6604C59.4397 55.0111 59.8882 55.1313 60.239 54.9288C60.5897 54.7263 60.7099 54.2778 60.5074 53.927L59.3923 51.9957C59.3925 51.7268 59.5926 51.3765 59.9944 51.1721C60.1975 51.0688 60.3813 51.0466 60.513 51.0728C60.6228 51.0946 60.7509 51.1584 60.8682 51.3616L64.7604 58.1032C65.5215 59.4214 65.5751 60.5659 65.5352 61.6449C65.5299 61.7884 65.5223 61.9379 65.5147 62.0902C65.4946 62.489 65.4735 62.9073 65.4889 63.2879C65.5022 63.6177 65.5424 63.9574 65.6405 64.2953L59.8082 67.6626C59.4114 67.092 59.0084 66.6711 58.6332 66.3687C58.185 66.0075 57.7412 65.7882 57.376 65.7228L48.1105 62.783C47.9804 62.7417 47.8845 62.673 47.8334 62.6122C47.7896 62.5599 47.7889 62.53 47.7915 62.5082C47.8225 62.2482 47.9166 61.9819 48.1078 61.7519C48.2953 61.5264 48.6116 61.2929 49.161 61.1489C49.2814 61.1173 49.4356 61.1159 49.6268 61.1551L52.1818 61.678C52.4632 61.7356 52.7523 61.6237 52.9214 61.3916C53.0906 61.1595 53.1088 60.8501 52.9679 60.5998L47.3086 50.5477C47.1005 50.1871 47.1121 49.9343 47.1662 49.7733C47.2258 49.5961 47.3722 49.4265 47.5965 49.3121ZM58.5325 68.3991L57.095 69.2291C56.9266 69.3263 56.8037 69.4865 56.7533 69.6744C56.703 69.8622 56.7293 70.0624 56.8266 70.2308L58.7918 73.6347C58.9943 73.9855 59.4428 74.1057 59.7936 73.9032C60.1443 73.7007 60.2645 73.2522 60.062 72.9014L58.4634 70.1326L68.404 64.3934L71.1347 68.9747L64.4882 72.9118C64.1397 73.1182 64.0246 73.568 64.231 73.9165C64.4374 74.2649 64.8872 74.3801 65.2357 74.1737L72.5149 69.8619C72.6825 69.7626 72.8038 69.6007 72.8518 69.4118C72.8999 69.223 72.8708 69.0228 72.7711 68.8555L69.2936 63.0212C69.0882 62.6768 68.6443 62.5611 68.297 62.7616L66.9772 63.5236C66.966 63.4311 66.9585 63.3332 66.9543 63.2287C66.9418 62.9182 66.9577 62.6045 66.9763 62.2371C66.9847 62.0704 66.9937 61.8927 67.0008 61.6991C67.0452 60.4998 66.9908 59.033 66.0306 57.3698L62.1383 50.6283C61.8204 50.0775 61.3433 49.7425 60.7991 49.6343C60.2767 49.5305 59.7575 49.647 59.3293 49.8649C58.956 50.0548 58.5897 50.3602 58.3246 50.7452C57.7279 50.3265 57.04 50.1924 56.369 50.3871C55.7639 50.5627 55.2765 50.9793 54.9677 51.539C54.4354 51.1942 53.8226 51.064 53.2188 51.1877C52.6994 51.2941 52.253 51.5747 51.9219 51.984L50.1466 48.9092C49.3963 47.6096 47.9224 47.4994 46.9301 48.0056C46.4236 48.264 45.9775 48.7065 45.776 49.3061C45.5694 49.9208 45.6509 50.6079 46.0363 51.2774L50.9014 59.9189L49.9209 59.7182C49.5837 59.6492 49.1904 59.6249 48.789 59.7301C47.9818 59.9418 47.3869 60.3249 46.98 60.8142C46.5769 61.2991 46.3934 61.8459 46.3352 62.3345C46.2158 63.335 47.0092 63.9723 47.667 64.1809L56.9861 67.1378C57.0301 67.1518 57.0753 67.1615 57.1211 67.167C57.1198 67.1668 57.1194 67.1666 57.1211 67.167C57.1305 67.1692 57.1859 67.1822 57.2845 67.2301C57.3944 67.2835 57.5409 67.3721 57.7129 67.5107C57.9513 67.7028 58.2346 67.9879 58.5325 68.3991Z" fill="#413488"/>
<path d="M60.5332 75.2815C60.1752 75.4949 60.058 75.9581 60.2714 76.3161C60.4848 76.6742 60.948 76.7914 61.306 76.578C61.664 76.3646 61.7813 75.9014 61.5679 75.5434C61.3545 75.1853 60.8912 75.0681 60.5332 75.2815Z" fill="#413488"/>
<defs>
<filter id="filter0_d_112_1560" x="0" y="0" width="120" height="120" filterUnits="userSpaceOnUse" color-interpolation-filters="sRGB">
<feFlood flood-opacity="0" result="BackgroundImageFix"/>
<feColorMatrix in="SourceAlpha" type="matrix" values="0 0 0 0 0 0 0 0 0 0 0 0 0 0 0 0 0 0 127 0" result="hardAlpha"/>
<feOffset dy="5"/>
<feGaussianBlur stdDeviation="10"/>
<feComposite in2="hardAlpha" operator="out"/>
<feColorMatrix type="matrix" values="0 0 0 0 0 0 0 0 0 0.193333 0 0 0 0 0.483333 0 0 0 0.07 0"/>
<feBlend mode="normal" in2="BackgroundImageFix" result="effect1_dropShadow_112_1560"/>
<feBlend mode="normal" in="SourceGraphic" in2="effect1_dropShadow_112_1560" result="shape"/>
</filter>
</defs>
</svg>
