<svg width="120" height="120" viewBox="0 0 120 120" fill="none" xmlns="http://www.w3.org/2000/svg">
<g clip-path="url(#clip0_655_1268)">
<path fill-rule="evenodd" clip-rule="evenodd" d="M70.5771 15.4975C69.8078 14.7334 68.5658 14.7344 67.7977 15.4997C67.0202 16.2744 67.0256 17.535 67.8097 18.3031L69.8761 20.3274L84.0787 34.5283C84.8452 35.2947 86.0878 35.2947 86.8543 34.5283C87.6209 33.7618 87.6209 32.5189 86.8543 31.7524L79.9858 24.8847C79.3999 24.299 79.3999 23.3492 79.9856 22.7634C80.5714 22.1776 81.5211 22.1775 82.1069 22.7633L88.9755 29.6309C90.9139 31.5691 90.9139 34.7116 88.9755 36.6498C87.2317 38.3933 84.5134 38.5681 82.5743 37.1741L79.7522 39.9958L81.5484 41.7917C82.7201 42.9633 82.7201 44.863 81.5484 46.0346L80.7317 46.8512L107.994 74.1102C109.166 75.2818 109.166 77.1815 107.994 78.3531L103.259 83.0874C102.088 84.2588 100.188 84.2588 99.0169 83.0874L71.7539 55.8279L70.9367 56.645C69.7651 57.8164 67.8659 57.8164 66.6943 56.645L64.8976 54.8485L62.0741 57.6717C63.4646 59.6152 63.2871 62.3348 61.5416 64.0802C59.6085 66.013 56.4781 66.0241 54.5313 64.105L38.3334 48.1371C36.3745 46.206 36.3353 43.0579 38.2454 41.0785C40.1569 39.0977 43.3073 39.0265 45.3064 40.9189L46.259 41.8206L66.6831 21.3991L65.7103 20.4462C63.7326 18.5088 63.719 15.3288 65.6802 13.3746C67.6176 11.4441 70.7508 11.4416 72.6913 13.369L75.7494 16.4065C76.3372 16.9903 76.3404 17.9401 75.7566 18.5279C75.1728 19.1156 74.223 19.1188 73.6353 18.535L70.5771 15.4975ZM68.8155 23.5094L48.4091 43.9132L60.0002 55.5029L80.4067 35.099L68.8155 23.5094ZM45.2415 44.9884L43.2441 43.0975C42.44 42.3364 41.173 42.3651 40.4041 43.1617C39.6359 43.9578 39.6517 45.224 40.4395 46.0007L56.6374 61.9686C57.4102 62.7304 58.653 62.726 59.4204 61.9587C60.1918 61.1874 60.1918 59.9368 59.4204 59.1655L45.2415 44.9884ZM67.0191 52.7273L68.8155 54.5235L79.4272 43.9132L77.6307 42.117L67.0191 52.7273ZM73.8754 53.7067L101.138 80.9659L105.873 76.2317L78.6102 48.9724L73.8754 53.7067Z" fill="#413488"/>
<path d="M77.7577 19.1333C76.7897 19.1468 76.0158 19.9425 76.0293 20.9105C76.0428 21.8785 76.8384 22.6524 77.8065 22.6389C78.7745 22.6254 79.5483 21.8298 79.5349 20.8617C79.5214 19.8937 78.7257 19.1199 77.7577 19.1333Z" fill="#413488"/>
<path fill-rule="evenodd" clip-rule="evenodd" d="M10.9158 101.025C10.9158 99.3678 12.2589 98.0247 13.9158 98.0247H26.1544C26.9828 98.0247 27.6544 98.6962 27.6544 99.5247C27.6544 100.353 26.9828 101.025 26.1544 101.025H13.9158V105.875L65.8702 105.875V101.025H33.0237C32.1953 101.025 31.5237 100.353 31.5237 99.5247C31.5237 98.6962 32.1953 98.0247 33.0237 98.0247H65.8702C67.5271 98.0247 68.8702 99.3678 68.8702 101.025V105.875C68.8702 107.532 67.5271 108.875 65.8702 108.875H13.9158C12.2589 108.875 10.9158 107.532 10.9158 105.875V101.025Z" fill="#413488"/>
<path fill-rule="evenodd" clip-rule="evenodd" d="M16.8041 98.0247C16.8041 99.6815 18.1472 101.025 19.8041 101.025H25.1734C26.0018 101.025 26.6734 100.353 26.6734 99.5247C26.6734 98.6962 26.0018 98.0247 25.1734 98.0247H19.8041V93.174L59.9826 93.174V98.0247H34.496C33.6676 98.0247 32.996 98.6962 32.996 99.5247C32.996 100.353 33.6676 101.025 34.496 101.025H59.9826C61.6394 101.025 62.9826 99.6815 62.9826 98.0247V93.174C62.9826 91.5172 61.6394 90.174 59.9826 90.174H19.8041C18.1472 90.174 16.8041 91.5172 16.8041 93.174V98.0247Z" fill="#413488"/>
<path fill-rule="evenodd" clip-rule="evenodd" d="M39.8932 65.6407C40.7217 65.6407 41.3932 66.3123 41.3932 67.1407V77.9354C41.3932 78.7638 40.7217 79.4354 39.8932 79.4354C39.0648 79.4354 38.3932 78.7638 38.3932 77.9354V67.1407C38.3932 66.3123 39.0648 65.6407 39.8932 65.6407Z" fill="#FFB800"/>
<path fill-rule="evenodd" clip-rule="evenodd" d="M21.2531 76.6785C21.7282 75.9999 22.6635 75.835 23.3422 76.3101L32.1846 82.5017C32.8632 82.9768 33.0281 83.9122 32.553 84.5908C32.0778 85.2694 31.1425 85.4343 30.4639 84.9591L21.6214 78.7676C20.9428 78.2924 20.7779 77.3571 21.2531 76.6785Z" fill="#FFB800"/>
<path fill-rule="evenodd" clip-rule="evenodd" d="M59.7775 77.0752C59.3023 76.3966 58.367 76.2317 57.6884 76.7069L48.8459 82.8984C48.1673 83.3736 48.0024 84.3089 48.4776 84.9875C48.9527 85.6661 49.888 85.831 50.5666 85.3559L59.4091 79.1643C60.0877 78.6892 60.2526 77.7538 59.7775 77.0752Z" fill="#FFB800"/>
</g>
<defs>
<clipPath id="clip0_655_1268">
<rect width="120" height="120" fill="white"/>
</clipPath>
</defs>
</svg>
