<svg width="60" height="60" viewBox="0 0 60 60" fill="none" xmlns="http://www.w3.org/2000/svg">
<path fill-rule="evenodd" clip-rule="evenodd" d="M5.13541 11.6667C5.13541 10.8566 5.79206 10.2 6.60207 10.2H52.665C53.475 10.2 54.1316 10.8566 54.1316 11.6667V42.8322C54.1316 43.6423 53.475 44.2989 52.665 44.2989H45.5949V42.8322H52.665V18.0512H6.60207V42.8322H19.3473V44.2989H6.60207C5.79205 44.2989 5.13541 43.6423 5.13541 42.8322V11.6667ZM6.60207 16.5846H52.665V11.6667L6.60207 11.6667V16.5846Z" fill="#413488"/>
<path d="M10.8348 14.4804C10.8348 14.8722 10.5172 15.1898 10.1254 15.1898C9.73362 15.1898 9.41602 14.8722 9.41602 14.4804C9.41602 14.0886 9.73362 13.771 10.1254 13.771C10.5172 13.771 10.8348 14.0886 10.8348 14.4804Z" fill="#FFB800"/>
<path d="M13.6725 14.4804C13.6725 14.8722 13.3548 15.1898 12.9631 15.1898C12.5713 15.1898 12.2537 14.8722 12.2537 14.4804C12.2537 14.0886 12.5713 13.771 12.9631 13.771C13.3548 13.771 13.6725 14.0886 13.6725 14.4804Z" fill="#FFB800"/>
<path d="M16.5094 14.4804C16.5094 14.8722 16.1918 15.1898 15.8 15.1898C15.4082 15.1898 15.0906 14.8722 15.0906 14.4804C15.0906 14.0886 15.4082 13.771 15.8 13.771C16.1918 13.771 16.5094 14.0886 16.5094 14.4804Z" fill="#FFB800"/>
<path fill-rule="evenodd" clip-rule="evenodd" d="M17.5965 24.3121C18.0658 24.0727 18.6062 24.1744 18.8765 24.6425L22.6188 31.1244C22.8213 31.4752 23.2698 31.5953 23.6205 31.3928C23.9713 31.1903 24.0915 30.7418 23.889 30.3911L22.8015 28.5075C22.9101 27.9195 23.2461 27.6792 23.5132 27.6245C23.819 27.5619 24.313 27.6854 24.6982 28.3526L25.6986 30.0853C25.9011 30.4361 26.3496 30.5563 26.7003 30.3537C27.0511 30.1512 27.1712 29.7027 26.9687 29.352L26.0783 27.8098C26.1466 27.1979 26.4896 26.8793 26.7778 26.7956C27.0521 26.716 27.5708 26.7741 28.0465 27.5979L29.2372 29.6604C29.4397 30.0111 29.8882 30.1313 30.239 29.9288C30.5897 29.7263 30.7099 29.2778 30.5074 28.927L29.3923 26.9957C29.3925 26.7268 29.5926 26.3765 29.9944 26.1721C30.1975 26.0688 30.3813 26.0466 30.513 26.0728C30.6228 26.0946 30.7509 26.1584 30.8682 26.3616L34.7604 33.1032C35.5215 34.4214 35.5751 35.5659 35.5352 36.6449C35.5299 36.7884 35.5223 36.9379 35.5147 37.0902C35.4946 37.489 35.4735 37.9073 35.4889 38.2879C35.5022 38.6177 35.5424 38.9574 35.6405 39.2953L29.8082 42.6626C29.4114 42.092 29.0084 41.6711 28.6332 41.3687C28.185 41.0075 27.7412 40.7882 27.376 40.7228L18.1105 37.783C17.9804 37.7417 17.8845 37.673 17.8334 37.6122C17.7896 37.5599 17.7889 37.53 17.7915 37.5082C17.8225 37.2482 17.9166 36.9819 18.1078 36.7519C18.2953 36.5264 18.6116 36.2929 19.161 36.1489C19.2814 36.1173 19.4356 36.1159 19.6268 36.1551L22.1818 36.678C22.4632 36.7356 22.7523 36.6237 22.9214 36.3916C23.0906 36.1595 23.1088 35.8501 22.9679 35.5998L17.3086 25.5477C17.1005 25.1871 17.1121 24.9343 17.1662 24.7733C17.2258 24.5961 17.3722 24.4265 17.5965 24.3121ZM28.5325 43.3991L27.095 44.2291C26.9266 44.3263 26.8037 44.4865 26.7533 44.6744C26.703 44.8622 26.7293 45.0624 26.8266 45.2308L28.7918 48.6347C28.9943 48.9855 29.4428 49.1057 29.7936 48.9032C30.1443 48.7007 30.2645 48.2522 30.062 47.9014L28.4634 45.1326L38.404 39.3934L41.1347 43.9747L34.4882 47.9118C34.1397 48.1182 34.0246 48.568 34.231 48.9165C34.4374 49.2649 34.8872 49.3801 35.2357 49.1737L42.5149 44.8619C42.6825 44.7626 42.8038 44.6007 42.8518 44.4118C42.8999 44.223 42.8708 44.0228 42.7711 43.8555L39.2936 38.0212C39.0882 37.6768 38.6443 37.5611 38.297 37.7616L36.9772 38.5236C36.966 38.4311 36.9585 38.3332 36.9543 38.2287C36.9418 37.9182 36.9577 37.6045 36.9763 37.2371C36.9847 37.0704 36.9937 36.8927 37.0008 36.6991C37.0452 35.4998 36.9908 34.033 36.0306 32.3698L32.1383 25.6283C31.8204 25.0775 31.3433 24.7425 30.7991 24.6343C30.2767 24.5305 29.7575 24.647 29.3293 24.8649C28.956 25.0548 28.5897 25.3602 28.3246 25.7452C27.7279 25.3265 27.04 25.1924 26.369 25.3871C25.7639 25.5627 25.2765 25.9793 24.9677 26.539C24.4354 26.1942 23.8226 26.064 23.2188 26.1877C22.6994 26.2941 22.253 26.5747 21.9219 26.984L20.1466 23.9092C19.3963 22.6096 17.9224 22.4994 16.9301 23.0056C16.4236 23.264 15.9775 23.7065 15.776 24.3061C15.5694 24.9208 15.6509 25.6079 16.0363 26.2774L20.9014 34.9189L19.9209 34.7182C19.5837 34.6492 19.1904 34.6249 18.789 34.7301C17.9818 34.9418 17.3869 35.3249 16.98 35.8142C16.5769 36.2991 16.3934 36.8459 16.3352 37.3345C16.2158 38.335 17.0092 38.9723 17.667 39.1809L26.9861 42.1378C27.0301 42.1518 27.0753 42.1615 27.1211 42.167C27.1198 42.1668 27.1194 42.1666 27.1211 42.167C27.1305 42.1692 27.1859 42.1822 27.2845 42.2301C27.3944 42.2835 27.5409 42.3721 27.7129 42.5107C27.9513 42.7028 28.2346 42.9879 28.5325 43.3991Z" fill="#413488"/>
<path d="M30.5332 50.2815C30.1752 50.4949 30.058 50.9581 30.2714 51.3161C30.4848 51.6742 30.948 51.7914 31.306 51.578C31.664 51.3646 31.7813 50.9014 31.5679 50.5434C31.3545 50.1853 30.8912 50.0681 30.5332 50.2815Z" fill="#413488"/>
</svg>
